<svg width="19" height="19" viewBox="0 0 19 19" fill="none" xmlns="http://www.w3.org/2000/svg">
<path d="M14.8223 8.07831V5.73794C14.8223 5.32414 14.6579 4.92729 14.3653 4.63469C14.0727 4.34209 13.6758 4.1777 13.262 4.1777H5.46081C5.04701 4.1777 4.65016 4.34209 4.35756 4.63469C4.06495 4.92729 3.90057 5.32414 3.90057 5.73794V8.07831C3.48677 8.07831 3.08992 8.24269 2.79732 8.53529C2.50471 8.82789 2.34033 9.22475 2.34033 9.63855V13.5392H3.37789L3.90057 15.0994H4.68069L5.20337 13.5392H13.5195L14.0421 15.0994H14.8223L15.3449 13.5392H16.3825V9.63855C16.3825 9.22475 16.2181 8.82789 15.9255 8.53529C15.6329 8.24269 15.2361 8.07831 14.8223 8.07831ZM5.46081 5.73794H13.262V8.07831H5.46081V5.73794ZM14.8223 11.9789H3.90057V9.63855H14.8223V11.9789Z" fill="#767676"/>
</svg>
