<?xml version="1.0"?>
<svg xmlns="http://www.w3.org/2000/svg" xmlns:xlink="http://www.w3.org/1999/xlink" xmlns:svgjs="http://svgjs.com/svgjs" version="1.1" width="512" height="512" x="0" y="0" viewBox="0 0 512 512" style="enable-background:new 0 0 512 512" xml:space="preserve" class=""><g><g xmlns="http://www.w3.org/2000/svg"><g fill="#57a4ff"><path d="m496 160v208a40 40 0 0 1 -40 40h-8v64l-64-64h-216a40 40 0 0 1 -40-40v-40h216a40 40 0 0 0 40-40v-168h72a40 40 0 0 1 40 40z" fill="#fbbb03" data-original="#57a4ff" style="" class=""/><circle cx="120" cy="176" r="16" fill="#fbbb03" data-original="#57a4ff" style="" class=""/><circle cx="200" cy="176" r="16" fill="#fbbb03" data-original="#57a4ff" style="" class=""/><circle cx="280" cy="176" r="16" fill="#fbbb03" data-original="#57a4ff" style="" class=""/><circle cx="200" cy="176" r="16" fill="#fbbb03" data-original="#57a4ff" style="" class=""/><circle cx="120" cy="176" r="16" fill="#fbbb03" data-original="#57a4ff" style="" class=""/><circle cx="280" cy="176" r="16" fill="#fbbb03" data-original="#57a4ff" style="" class=""/></g><g fill="#004fac"><path d="m456 112h-64v-32a48.051 48.051 0 0 0 -48-48h-288a48.051 48.051 0 0 0 -48 48v208a48.051 48.051 0 0 0 48 48v56a8 8 0 0 0 13.66 5.66l50.34-50.35v20.69a48.051 48.051 0 0 0 48 48h212.69l61.65 61.66a8 8 0 0 0 13.66-5.66v-56a48.051 48.051 0 0 0 48-48v-208a48.051 48.051 0 0 0 -48-48zm-328 208a8.008 8.008 0 0 0 -5.66 2.34l-50.34 50.35v-44.69a8 8 0 0 0 -8-8h-8a32.036 32.036 0 0 1 -32-32v-208a32.036 32.036 0 0 1 32-32h288a32.036 32.036 0 0 1 32 32v208a32.036 32.036 0 0 1 -32 32zm360 48a32.036 32.036 0 0 1 -32 32h-8a8 8 0 0 0 -8 8v44.69l-50.34-50.35a8.008 8.008 0 0 0 -5.66-2.34h-216a32.036 32.036 0 0 1 -32-32v-32h208a48.051 48.051 0 0 0 48-48v-160h64a32.036 32.036 0 0 1 32 32z" fill="#ffffff" data-original="#004fac" style="" class=""/><path d="m200 200a24 24 0 1 0 -24-24 24.027 24.027 0 0 0 24 24zm0-32a8 8 0 1 1 -8 8 8.009 8.009 0 0 1 8-8z" fill="#ffffff" data-original="#004fac" style="" class=""/><path d="m120 200a24 24 0 1 0 -24-24 24.027 24.027 0 0 0 24 24zm0-32a8 8 0 1 1 -8 8 8.009 8.009 0 0 1 8-8z" fill="#ffffff" data-original="#004fac" style="" class=""/><path d="m280 200a24 24 0 1 0 -24-24 24.027 24.027 0 0 0 24 24zm0-32a8 8 0 1 1 -8 8 8.009 8.009 0 0 1 8-8z" fill="#ffffff" data-original="#004fac" style="" class=""/></g></g></g></svg>
