<svg width="221" height="195" viewBox="0 0 221 195" fill="none" xmlns="http://www.w3.org/2000/svg">
<g opacity="0.3">
<mask id="mask0" mask-type="alpha" maskUnits="userSpaceOnUse" x="115" y="0" width="9" height="9">
<path d="M119.183 8.33997C121.493 8.33997 123.365 6.47297 123.365 4.16996C123.365 1.86695 121.493 0 119.183 0C116.873 0 115 1.86695 115 4.16996C115 6.47297 116.873 8.33997 119.183 8.33997Z" fill="#C9CEC7"/>
</mask>
<g mask="url(#mask0)">
<path d="M119.183 8.33997C121.493 8.33997 123.365 6.47297 123.365 4.16996C123.365 1.86695 121.493 0 119.183 0C116.873 0 115 1.86695 115 4.16996C115 6.47297 116.873 8.33997 119.183 8.33997Z" fill="#C9CEC7"/>
</g>
<mask id="mask1" mask-type="alpha" maskUnits="userSpaceOnUse" x="139" y="0" width="9" height="9">
<path d="M143.408 8.33997C145.718 8.33997 147.59 6.47297 147.59 4.16996C147.59 1.86695 145.718 0 143.408 0C141.098 0 139.225 1.86695 139.225 4.16996C139.225 6.47297 141.098 8.33997 143.408 8.33997Z" fill="#C9CEC7"/>
</mask>
<g mask="url(#mask1)">
<path d="M143.408 8.33997C145.718 8.33997 147.59 6.47297 147.59 4.16996C147.59 1.86695 145.718 0 143.408 0C141.098 0 139.225 1.86695 139.225 4.16996C139.225 6.47297 141.098 8.33997 143.408 8.33997Z" fill="#C9CEC7"/>
</g>
<mask id="mask2" mask-type="alpha" maskUnits="userSpaceOnUse" x="163" y="0" width="9" height="9">
<path d="M167.632 8.33997C169.942 8.33997 171.815 6.47297 171.815 4.16996C171.815 1.86695 169.942 0 167.632 0C165.322 0 163.45 1.86695 163.45 4.16996C163.45 6.47297 165.322 8.33997 167.632 8.33997Z" fill="#C9CEC7"/>
</mask>
<g mask="url(#mask2)">
<path d="M167.632 8.33997C169.942 8.33997 171.815 6.47297 171.815 4.16996C171.815 1.86695 169.942 0 167.632 0C165.322 0 163.45 1.86695 163.45 4.16996C163.45 6.47297 165.322 8.33997 167.632 8.33997Z" fill="#C9CEC7"/>
</g>
<mask id="mask3" mask-type="alpha" maskUnits="userSpaceOnUse" x="187" y="0" width="10" height="9">
<path d="M191.857 8.33997C194.167 8.33997 196.04 6.47297 196.04 4.16996C196.04 1.86695 194.167 0 191.857 0C189.547 0 187.675 1.86695 187.675 4.16996C187.675 6.47297 189.547 8.33997 191.857 8.33997Z" fill="#C9CEC7"/>
</mask>
<g mask="url(#mask3)">
<path d="M191.857 8.33997C194.167 8.33997 196.04 6.47297 196.04 4.16996C196.04 1.86695 194.167 0 191.857 0C189.547 0 187.675 1.86695 187.675 4.16996C187.675 6.47297 189.547 8.33997 191.857 8.33997Z" fill="#C9CEC7"/>
</g>
<mask id="mask4" mask-type="alpha" maskUnits="userSpaceOnUse" x="211" y="0" width="10" height="9">
<path d="M216.082 8.33997C218.392 8.33997 220.265 6.47297 220.265 4.16996C220.265 1.86695 218.392 0 216.082 0C213.772 0 211.899 1.86695 211.899 4.16996C211.899 6.47297 213.772 8.33997 216.082 8.33997Z" fill="#C9CEC7"/>
</mask>
<g mask="url(#mask4)">
<path d="M216.082 8.33997C218.392 8.33997 220.265 6.47297 220.265 4.16996C220.265 1.86695 218.392 0 216.082 0C213.772 0 211.899 1.86695 211.899 4.16996C211.899 6.47297 213.772 8.33997 216.082 8.33997Z" fill="#C9CEC7"/>
</g>
<mask id="mask5" mask-type="alpha" maskUnits="userSpaceOnUse" x="115" y="20" width="9" height="10">
<path d="M119.183 29.2767C121.493 29.2767 123.365 27.4097 123.365 25.1067C123.365 22.8037 121.493 20.9368 119.183 20.9368C116.873 20.9368 115 22.8037 115 25.1067C115 27.4097 116.873 29.2767 119.183 29.2767Z" fill="#C9CEC7"/>
</mask>
<g mask="url(#mask5)">
<path d="M119.183 29.2767C121.493 29.2767 123.365 27.4097 123.365 25.1067C123.365 22.8037 121.493 20.9368 119.183 20.9368C116.873 20.9368 115 22.8037 115 25.1067C115 27.4097 116.873 29.2767 119.183 29.2767Z" fill="#C9CEC7"/>
</g>
<mask id="mask6" mask-type="alpha" maskUnits="userSpaceOnUse" x="139" y="20" width="9" height="10">
<path d="M143.408 29.2767C145.718 29.2767 147.59 27.4097 147.59 25.1067C147.59 22.8037 145.718 20.9368 143.408 20.9368C141.098 20.9368 139.225 22.8037 139.225 25.1067C139.225 27.4097 141.098 29.2767 143.408 29.2767Z" fill="#C9CEC7"/>
</mask>
<g mask="url(#mask6)">
<path d="M143.408 29.2767C145.718 29.2767 147.59 27.4097 147.59 25.1067C147.59 22.8037 145.718 20.9368 143.408 20.9368C141.098 20.9368 139.225 22.8037 139.225 25.1067C139.225 27.4097 141.098 29.2767 143.408 29.2767Z" fill="#C9CEC7"/>
</g>
<mask id="mask7" mask-type="alpha" maskUnits="userSpaceOnUse" x="163" y="20" width="9" height="10">
<path d="M167.632 29.2767C169.942 29.2767 171.815 27.4097 171.815 25.1067C171.815 22.8037 169.942 20.9368 167.632 20.9368C165.322 20.9368 163.45 22.8037 163.45 25.1067C163.45 27.4097 165.322 29.2767 167.632 29.2767Z" fill="#C9CEC7"/>
</mask>
<g mask="url(#mask7)">
<path d="M167.632 29.2767C169.942 29.2767 171.815 27.4097 171.815 25.1067C171.815 22.8037 169.942 20.9368 167.632 20.9368C165.322 20.9368 163.45 22.8037 163.45 25.1067C163.45 27.4097 165.322 29.2767 167.632 29.2767Z" fill="#C9CEC7"/>
</g>
<mask id="mask8" mask-type="alpha" maskUnits="userSpaceOnUse" x="187" y="20" width="10" height="10">
<path d="M191.857 29.2767C194.167 29.2767 196.04 27.4097 196.04 25.1067C196.04 22.8037 194.167 20.9368 191.857 20.9368C189.547 20.9368 187.675 22.8037 187.675 25.1067C187.675 27.4097 189.547 29.2767 191.857 29.2767Z" fill="#C9CEC7"/>
</mask>
<g mask="url(#mask8)">
<path d="M191.857 29.2767C194.167 29.2767 196.04 27.4097 196.04 25.1067C196.04 22.8037 194.167 20.9368 191.857 20.9368C189.547 20.9368 187.675 22.8037 187.675 25.1067C187.675 27.4097 189.547 29.2767 191.857 29.2767Z" fill="#C9CEC7"/>
</g>
<mask id="mask9" mask-type="alpha" maskUnits="userSpaceOnUse" x="211" y="20" width="10" height="10">
<path d="M216.082 29.2767C218.392 29.2767 220.265 27.4097 220.265 25.1067C220.265 22.8037 218.392 20.9368 216.082 20.9368C213.772 20.9368 211.899 22.8037 211.899 25.1067C211.899 27.4097 213.772 29.2767 216.082 29.2767Z" fill="#C9CEC7"/>
</mask>
<g mask="url(#mask9)">
<path d="M216.082 29.2767C218.392 29.2767 220.265 27.4097 220.265 25.1067C220.265 22.8037 218.392 20.9368 216.082 20.9368C213.772 20.9368 211.899 22.8037 211.899 25.1067C211.899 27.4097 213.772 29.2767 216.082 29.2767Z" fill="#C9CEC7"/>
</g>
<mask id="mask10" mask-type="alpha" maskUnits="userSpaceOnUse" x="115" y="41" width="9" height="10">
<path d="M119.183 50.17C121.493 50.17 123.365 48.3031 123.365 46.0001C123.365 43.697 121.493 41.8301 119.183 41.8301C116.873 41.8301 115 43.697 115 46.0001C115 48.3031 116.873 50.17 119.183 50.17Z" fill="#C9CEC7"/>
</mask>
<g mask="url(#mask10)">
<path d="M119.183 50.17C121.493 50.17 123.365 48.3031 123.365 46.0001C123.365 43.697 121.493 41.8301 119.183 41.8301C116.873 41.8301 115 43.697 115 46.0001C115 48.3031 116.873 50.17 119.183 50.17Z" fill="#C9CEC7"/>
</g>
<mask id="mask11" mask-type="alpha" maskUnits="userSpaceOnUse" x="139" y="41" width="9" height="10">
<path d="M143.408 50.17C145.718 50.17 147.59 48.3031 147.59 46.0001C147.59 43.697 145.718 41.8301 143.408 41.8301C141.098 41.8301 139.225 43.697 139.225 46.0001C139.225 48.3031 141.098 50.17 143.408 50.17Z" fill="#C9CEC7"/>
</mask>
<g mask="url(#mask11)">
<path d="M143.408 50.17C145.718 50.17 147.59 48.3031 147.59 46.0001C147.59 43.697 145.718 41.8301 143.408 41.8301C141.098 41.8301 139.225 43.697 139.225 46.0001C139.225 48.3031 141.098 50.17 143.408 50.17Z" fill="#C9CEC7"/>
</g>
<mask id="mask12" mask-type="alpha" maskUnits="userSpaceOnUse" x="163" y="41" width="9" height="10">
<path d="M167.632 50.17C169.942 50.17 171.815 48.3031 171.815 46.0001C171.815 43.697 169.942 41.8301 167.632 41.8301C165.322 41.8301 163.45 43.697 163.45 46.0001C163.45 48.3031 165.322 50.17 167.632 50.17Z" fill="#C9CEC7"/>
</mask>
<g mask="url(#mask12)">
<path d="M167.632 50.17C169.942 50.17 171.815 48.3031 171.815 46.0001C171.815 43.697 169.942 41.8301 167.632 41.8301C165.322 41.8301 163.45 43.697 163.45 46.0001C163.45 48.3031 165.322 50.17 167.632 50.17Z" fill="#C9CEC7"/>
</g>
<mask id="mask13" mask-type="alpha" maskUnits="userSpaceOnUse" x="187" y="41" width="10" height="10">
<path d="M191.857 50.17C194.167 50.17 196.04 48.3031 196.04 46.0001C196.04 43.697 194.167 41.8301 191.857 41.8301C189.547 41.8301 187.675 43.697 187.675 46.0001C187.675 48.3031 189.547 50.17 191.857 50.17Z" fill="#C9CEC7"/>
</mask>
<g mask="url(#mask13)">
<path d="M191.857 50.17C194.167 50.17 196.04 48.3031 196.04 46.0001C196.04 43.697 194.167 41.8301 191.857 41.8301C189.547 41.8301 187.675 43.697 187.675 46.0001C187.675 48.3031 189.547 50.17 191.857 50.17Z" fill="#C9CEC7"/>
</g>
<mask id="mask14" mask-type="alpha" maskUnits="userSpaceOnUse" x="211" y="41" width="10" height="10">
<path d="M216.082 50.17C218.392 50.17 220.265 48.3031 220.265 46.0001C220.265 43.697 218.392 41.8301 216.082 41.8301C213.772 41.8301 211.899 43.697 211.899 46.0001C211.899 48.3031 213.772 50.17 216.082 50.17Z" fill="#C9CEC7"/>
</mask>
<g mask="url(#mask14)">
<path d="M216.082 50.17C218.392 50.17 220.265 48.3031 220.265 46.0001C220.265 43.697 218.392 41.8301 216.082 41.8301C213.772 41.8301 211.899 43.697 211.899 46.0001C211.899 48.3031 213.772 50.17 216.082 50.17Z" fill="#C9CEC7"/>
</g>
<mask id="mask15" mask-type="alpha" maskUnits="userSpaceOnUse" x="115" y="62" width="9" height="10">
<path d="M119.183 71.1066C121.493 71.1066 123.365 69.2396 123.365 66.9366C123.365 64.6335 121.493 62.7666 119.183 62.7666C116.873 62.7666 115 64.6335 115 66.9366C115 69.2396 116.873 71.1066 119.183 71.1066Z" fill="#C9CEC7"/>
</mask>
<g mask="url(#mask15)">
<path d="M119.183 71.1066C121.493 71.1066 123.365 69.2396 123.365 66.9366C123.365 64.6335 121.493 62.7666 119.183 62.7666C116.873 62.7666 115 64.6335 115 66.9366C115 69.2396 116.873 71.1066 119.183 71.1066Z" fill="#C9CEC7"/>
</g>
<mask id="mask16" mask-type="alpha" maskUnits="userSpaceOnUse" x="139" y="62" width="9" height="10">
<path d="M143.408 71.1066C145.718 71.1066 147.59 69.2396 147.59 66.9366C147.59 64.6335 145.718 62.7666 143.408 62.7666C141.098 62.7666 139.225 64.6335 139.225 66.9366C139.225 69.2396 141.098 71.1066 143.408 71.1066Z" fill="#C9CEC7"/>
</mask>
<g mask="url(#mask16)">
<path d="M143.408 71.1066C145.718 71.1066 147.59 69.2396 147.59 66.9366C147.59 64.6335 145.718 62.7666 143.408 62.7666C141.098 62.7666 139.225 64.6335 139.225 66.9366C139.225 69.2396 141.098 71.1066 143.408 71.1066Z" fill="#C9CEC7"/>
</g>
<mask id="mask17" mask-type="alpha" maskUnits="userSpaceOnUse" x="163" y="62" width="9" height="10">
<path d="M167.632 71.1066C169.942 71.1066 171.815 69.2396 171.815 66.9366C171.815 64.6335 169.942 62.7666 167.632 62.7666C165.322 62.7666 163.45 64.6335 163.45 66.9366C163.45 69.2396 165.322 71.1066 167.632 71.1066Z" fill="#C9CEC7"/>
</mask>
<g mask="url(#mask17)">
<path d="M167.632 71.1066C169.942 71.1066 171.815 69.2396 171.815 66.9366C171.815 64.6335 169.942 62.7666 167.632 62.7666C165.322 62.7666 163.45 64.6335 163.45 66.9366C163.45 69.2396 165.322 71.1066 167.632 71.1066Z" fill="#C9CEC7"/>
</g>
<mask id="mask18" mask-type="alpha" maskUnits="userSpaceOnUse" x="187" y="62" width="10" height="10">
<path d="M191.857 71.1066C194.167 71.1066 196.04 69.2396 196.04 66.9366C196.04 64.6335 194.167 62.7666 191.857 62.7666C189.547 62.7666 187.675 64.6335 187.675 66.9366C187.675 69.2396 189.547 71.1066 191.857 71.1066Z" fill="#C9CEC7"/>
</mask>
<g mask="url(#mask18)">
<path d="M191.857 71.1066C194.167 71.1066 196.04 69.2396 196.04 66.9366C196.04 64.6335 194.167 62.7666 191.857 62.7666C189.547 62.7666 187.675 64.6335 187.675 66.9366C187.675 69.2396 189.547 71.1066 191.857 71.1066Z" fill="#C9CEC7"/>
</g>
<mask id="mask19" mask-type="alpha" maskUnits="userSpaceOnUse" x="211" y="62" width="10" height="10">
<path d="M216.082 71.1066C218.392 71.1066 220.265 69.2396 220.265 66.9366C220.265 64.6335 218.392 62.7666 216.082 62.7666C213.772 62.7666 211.899 64.6335 211.899 66.9366C211.899 69.2396 213.772 71.1066 216.082 71.1066Z" fill="#C9CEC7"/>
</mask>
<g mask="url(#mask19)">
<path d="M216.082 71.1066C218.392 71.1066 220.265 69.2396 220.265 66.9366C220.265 64.6335 218.392 62.7666 216.082 62.7666C213.772 62.7666 211.899 64.6335 211.899 66.9366C211.899 69.2396 213.772 71.1066 216.082 71.1066Z" fill="#C9CEC7"/>
</g>
<mask id="mask20" mask-type="alpha" maskUnits="userSpaceOnUse" x="115" y="83" width="9" height="10">
<path d="M119.183 92.0001C121.493 92.0001 123.365 90.1332 123.365 87.8302C123.365 85.5272 121.493 83.6602 119.183 83.6602C116.873 83.6602 115 85.5272 115 87.8302C115 90.1332 116.873 92.0001 119.183 92.0001Z" fill="#C9CEC7"/>
</mask>
<g mask="url(#mask20)">
<path d="M119.183 92.0001C121.493 92.0001 123.365 90.1332 123.365 87.8302C123.365 85.5272 121.493 83.6602 119.183 83.6602C116.873 83.6602 115 85.5272 115 87.8302C115 90.1332 116.873 92.0001 119.183 92.0001Z" fill="#C9CEC7"/>
</g>
<mask id="mask21" mask-type="alpha" maskUnits="userSpaceOnUse" x="139" y="83" width="9" height="10">
<path d="M143.408 92.0001C145.718 92.0001 147.59 90.1332 147.59 87.8302C147.59 85.5272 145.718 83.6602 143.408 83.6602C141.098 83.6602 139.225 85.5272 139.225 87.8302C139.225 90.1332 141.098 92.0001 143.408 92.0001Z" fill="#C9CEC7"/>
</mask>
<g mask="url(#mask21)">
<path d="M143.408 92.0001C145.718 92.0001 147.59 90.1332 147.59 87.8302C147.59 85.5272 145.718 83.6602 143.408 83.6602C141.098 83.6602 139.225 85.5272 139.225 87.8302C139.225 90.1332 141.098 92.0001 143.408 92.0001Z" fill="#C9CEC7"/>
</g>
<mask id="mask22" mask-type="alpha" maskUnits="userSpaceOnUse" x="163" y="83" width="9" height="10">
<path d="M167.632 92.0001C169.942 92.0001 171.815 90.1332 171.815 87.8302C171.815 85.5272 169.942 83.6602 167.632 83.6602C165.322 83.6602 163.45 85.5272 163.45 87.8302C163.45 90.1332 165.322 92.0001 167.632 92.0001Z" fill="#C9CEC7"/>
</mask>
<g mask="url(#mask22)">
<path d="M167.632 92.0001C169.942 92.0001 171.815 90.1332 171.815 87.8302C171.815 85.5272 169.942 83.6602 167.632 83.6602C165.322 83.6602 163.45 85.5272 163.45 87.8302C163.45 90.1332 165.322 92.0001 167.632 92.0001Z" fill="#C9CEC7"/>
</g>
<mask id="mask23" mask-type="alpha" maskUnits="userSpaceOnUse" x="187" y="83" width="10" height="10">
<path d="M191.857 92.0001C194.167 92.0001 196.04 90.1332 196.04 87.8302C196.04 85.5272 194.167 83.6602 191.857 83.6602C189.547 83.6602 187.675 85.5272 187.675 87.8302C187.675 90.1332 189.547 92.0001 191.857 92.0001Z" fill="#C9CEC7"/>
</mask>
<g mask="url(#mask23)">
<path d="M191.857 92.0001C194.167 92.0001 196.04 90.1332 196.04 87.8302C196.04 85.5272 194.167 83.6602 191.857 83.6602C189.547 83.6602 187.675 85.5272 187.675 87.8302C187.675 90.1332 189.547 92.0001 191.857 92.0001Z" fill="#C9CEC7"/>
</g>
<mask id="mask24" mask-type="alpha" maskUnits="userSpaceOnUse" x="211" y="83" width="10" height="10">
<path d="M216.082 92.0001C218.392 92.0001 220.265 90.1332 220.265 87.8302C220.265 85.5272 218.392 83.6602 216.082 83.6602C213.772 83.6602 211.899 85.5272 211.899 87.8302C211.899 90.1332 213.772 92.0001 216.082 92.0001Z" fill="#C9CEC7"/>
</mask>
<g mask="url(#mask24)">
<path d="M216.082 92.0001C218.392 92.0001 220.265 90.1332 220.265 87.8302C220.265 85.5272 218.392 83.6602 216.082 83.6602C213.772 83.6602 211.899 85.5272 211.899 87.8302C211.899 90.1332 213.772 92.0001 216.082 92.0001Z" fill="#C9CEC7"/>
</g>
</g>
<g opacity="0.3">
<mask id="mask25" mask-type="alpha" maskUnits="userSpaceOnUse" x="115" y="103" width="9" height="9">
<path d="M119.183 111.34C121.493 111.34 123.365 109.473 123.365 107.17C123.365 104.867 121.493 103 119.183 103C116.873 103 115 104.867 115 107.17C115 109.473 116.873 111.34 119.183 111.34Z" fill="#C9CEC7"/>
</mask>
<g mask="url(#mask25)">
<path d="M119.183 111.34C121.493 111.34 123.365 109.473 123.365 107.17C123.365 104.867 121.493 103 119.183 103C116.873 103 115 104.867 115 107.17C115 109.473 116.873 111.34 119.183 111.34Z" fill="#C9CEC7"/>
</g>
<mask id="mask26" mask-type="alpha" maskUnits="userSpaceOnUse" x="139" y="103" width="9" height="9">
<path d="M143.408 111.34C145.718 111.34 147.59 109.473 147.59 107.17C147.59 104.867 145.718 103 143.408 103C141.098 103 139.225 104.867 139.225 107.17C139.225 109.473 141.098 111.34 143.408 111.34Z" fill="#C9CEC7"/>
</mask>
<g mask="url(#mask26)">
<path d="M143.408 111.34C145.718 111.34 147.59 109.473 147.59 107.17C147.59 104.867 145.718 103 143.408 103C141.098 103 139.225 104.867 139.225 107.17C139.225 109.473 141.098 111.34 143.408 111.34Z" fill="#C9CEC7"/>
</g>
<mask id="mask27" mask-type="alpha" maskUnits="userSpaceOnUse" x="163" y="103" width="9" height="9">
<path d="M167.632 111.34C169.942 111.34 171.815 109.473 171.815 107.17C171.815 104.867 169.942 103 167.632 103C165.322 103 163.45 104.867 163.45 107.17C163.45 109.473 165.322 111.34 167.632 111.34Z" fill="#C9CEC7"/>
</mask>
<g mask="url(#mask27)">
<path d="M167.632 111.34C169.942 111.34 171.815 109.473 171.815 107.17C171.815 104.867 169.942 103 167.632 103C165.322 103 163.45 104.867 163.45 107.17C163.45 109.473 165.322 111.34 167.632 111.34Z" fill="#C9CEC7"/>
</g>
<mask id="mask28" mask-type="alpha" maskUnits="userSpaceOnUse" x="187" y="103" width="10" height="9">
<path d="M191.857 111.34C194.167 111.34 196.04 109.473 196.04 107.17C196.04 104.867 194.167 103 191.857 103C189.547 103 187.675 104.867 187.675 107.17C187.675 109.473 189.547 111.34 191.857 111.34Z" fill="#C9CEC7"/>
</mask>
<g mask="url(#mask28)">
<path d="M191.857 111.34C194.167 111.34 196.04 109.473 196.04 107.17C196.04 104.867 194.167 103 191.857 103C189.547 103 187.675 104.867 187.675 107.17C187.675 109.473 189.547 111.34 191.857 111.34Z" fill="#C9CEC7"/>
</g>
<mask id="mask29" mask-type="alpha" maskUnits="userSpaceOnUse" x="211" y="103" width="10" height="9">
<path d="M216.082 111.34C218.392 111.34 220.265 109.473 220.265 107.17C220.265 104.867 218.392 103 216.082 103C213.772 103 211.899 104.867 211.899 107.17C211.899 109.473 213.772 111.34 216.082 111.34Z" fill="#C9CEC7"/>
</mask>
<g mask="url(#mask29)">
<path d="M216.082 111.34C218.392 111.34 220.265 109.473 220.265 107.17C220.265 104.867 218.392 103 216.082 103C213.772 103 211.899 104.867 211.899 107.17C211.899 109.473 213.772 111.34 216.082 111.34Z" fill="#C9CEC7"/>
</g>
<mask id="mask30" mask-type="alpha" maskUnits="userSpaceOnUse" x="115" y="123" width="9" height="10">
<path d="M119.183 132.277C121.493 132.277 123.365 130.41 123.365 128.107C123.365 125.804 121.493 123.937 119.183 123.937C116.873 123.937 115 125.804 115 128.107C115 130.41 116.873 132.277 119.183 132.277Z" fill="#C9CEC7"/>
</mask>
<g mask="url(#mask30)">
<path d="M119.183 132.277C121.493 132.277 123.365 130.41 123.365 128.107C123.365 125.804 121.493 123.937 119.183 123.937C116.873 123.937 115 125.804 115 128.107C115 130.41 116.873 132.277 119.183 132.277Z" fill="#C9CEC7"/>
</g>
<mask id="mask31" mask-type="alpha" maskUnits="userSpaceOnUse" x="139" y="123" width="9" height="10">
<path d="M143.408 132.277C145.718 132.277 147.59 130.41 147.59 128.107C147.59 125.804 145.718 123.937 143.408 123.937C141.098 123.937 139.225 125.804 139.225 128.107C139.225 130.41 141.098 132.277 143.408 132.277Z" fill="#C9CEC7"/>
</mask>
<g mask="url(#mask31)">
<path d="M143.408 132.277C145.718 132.277 147.59 130.41 147.59 128.107C147.59 125.804 145.718 123.937 143.408 123.937C141.098 123.937 139.225 125.804 139.225 128.107C139.225 130.41 141.098 132.277 143.408 132.277Z" fill="#C9CEC7"/>
</g>
<mask id="mask32" mask-type="alpha" maskUnits="userSpaceOnUse" x="163" y="123" width="9" height="10">
<path d="M167.632 132.277C169.942 132.277 171.815 130.41 171.815 128.107C171.815 125.804 169.942 123.937 167.632 123.937C165.322 123.937 163.45 125.804 163.45 128.107C163.45 130.41 165.322 132.277 167.632 132.277Z" fill="#C9CEC7"/>
</mask>
<g mask="url(#mask32)">
<path d="M167.632 132.277C169.942 132.277 171.815 130.41 171.815 128.107C171.815 125.804 169.942 123.937 167.632 123.937C165.322 123.937 163.45 125.804 163.45 128.107C163.45 130.41 165.322 132.277 167.632 132.277Z" fill="#C9CEC7"/>
</g>
<mask id="mask33" mask-type="alpha" maskUnits="userSpaceOnUse" x="187" y="123" width="10" height="10">
<path d="M191.857 132.277C194.167 132.277 196.04 130.41 196.04 128.107C196.04 125.804 194.167 123.937 191.857 123.937C189.547 123.937 187.675 125.804 187.675 128.107C187.675 130.41 189.547 132.277 191.857 132.277Z" fill="#C9CEC7"/>
</mask>
<g mask="url(#mask33)">
<path d="M191.857 132.277C194.167 132.277 196.04 130.41 196.04 128.107C196.04 125.804 194.167 123.937 191.857 123.937C189.547 123.937 187.675 125.804 187.675 128.107C187.675 130.41 189.547 132.277 191.857 132.277Z" fill="#C9CEC7"/>
</g>
<mask id="mask34" mask-type="alpha" maskUnits="userSpaceOnUse" x="211" y="123" width="10" height="10">
<path d="M216.082 132.277C218.392 132.277 220.265 130.41 220.265 128.107C220.265 125.804 218.392 123.937 216.082 123.937C213.772 123.937 211.899 125.804 211.899 128.107C211.899 130.41 213.772 132.277 216.082 132.277Z" fill="#C9CEC7"/>
</mask>
<g mask="url(#mask34)">
<path d="M216.082 132.277C218.392 132.277 220.265 130.41 220.265 128.107C220.265 125.804 218.392 123.937 216.082 123.937C213.772 123.937 211.899 125.804 211.899 128.107C211.899 130.41 213.772 132.277 216.082 132.277Z" fill="#C9CEC7"/>
</g>
<mask id="mask35" mask-type="alpha" maskUnits="userSpaceOnUse" x="115" y="144" width="9" height="10">
<path d="M119.183 153.17C121.493 153.17 123.365 151.303 123.365 149C123.365 146.697 121.493 144.83 119.183 144.83C116.873 144.83 115 146.697 115 149C115 151.303 116.873 153.17 119.183 153.17Z" fill="#C9CEC7"/>
</mask>
<g mask="url(#mask35)">
<path d="M119.183 153.17C121.493 153.17 123.365 151.303 123.365 149C123.365 146.697 121.493 144.83 119.183 144.83C116.873 144.83 115 146.697 115 149C115 151.303 116.873 153.17 119.183 153.17Z" fill="#C9CEC7"/>
</g>
<mask id="mask36" mask-type="alpha" maskUnits="userSpaceOnUse" x="139" y="144" width="9" height="10">
<path d="M143.408 153.17C145.718 153.17 147.59 151.303 147.59 149C147.59 146.697 145.718 144.83 143.408 144.83C141.098 144.83 139.225 146.697 139.225 149C139.225 151.303 141.098 153.17 143.408 153.17Z" fill="#C9CEC7"/>
</mask>
<g mask="url(#mask36)">
<path d="M143.408 153.17C145.718 153.17 147.59 151.303 147.59 149C147.59 146.697 145.718 144.83 143.408 144.83C141.098 144.83 139.225 146.697 139.225 149C139.225 151.303 141.098 153.17 143.408 153.17Z" fill="#C9CEC7"/>
</g>
<mask id="mask37" mask-type="alpha" maskUnits="userSpaceOnUse" x="163" y="144" width="9" height="10">
<path d="M167.632 153.17C169.942 153.17 171.815 151.303 171.815 149C171.815 146.697 169.942 144.83 167.632 144.83C165.322 144.83 163.45 146.697 163.45 149C163.45 151.303 165.322 153.17 167.632 153.17Z" fill="#C9CEC7"/>
</mask>
<g mask="url(#mask37)">
<path d="M167.632 153.17C169.942 153.17 171.815 151.303 171.815 149C171.815 146.697 169.942 144.83 167.632 144.83C165.322 144.83 163.45 146.697 163.45 149C163.45 151.303 165.322 153.17 167.632 153.17Z" fill="#C9CEC7"/>
</g>
<mask id="mask38" mask-type="alpha" maskUnits="userSpaceOnUse" x="187" y="144" width="10" height="10">
<path d="M191.857 153.17C194.167 153.17 196.04 151.303 196.04 149C196.04 146.697 194.167 144.83 191.857 144.83C189.547 144.83 187.675 146.697 187.675 149C187.675 151.303 189.547 153.17 191.857 153.17Z" fill="#C9CEC7"/>
</mask>
<g mask="url(#mask38)">
<path d="M191.857 153.17C194.167 153.17 196.04 151.303 196.04 149C196.04 146.697 194.167 144.83 191.857 144.83C189.547 144.83 187.675 146.697 187.675 149C187.675 151.303 189.547 153.17 191.857 153.17Z" fill="#C9CEC7"/>
</g>
<mask id="mask39" mask-type="alpha" maskUnits="userSpaceOnUse" x="211" y="144" width="10" height="10">
<path d="M216.082 153.17C218.392 153.17 220.265 151.303 220.265 149C220.265 146.697 218.392 144.83 216.082 144.83C213.772 144.83 211.899 146.697 211.899 149C211.899 151.303 213.772 153.17 216.082 153.17Z" fill="#C9CEC7"/>
</mask>
<g mask="url(#mask39)">
<path d="M216.082 153.17C218.392 153.17 220.265 151.303 220.265 149C220.265 146.697 218.392 144.83 216.082 144.83C213.772 144.83 211.899 146.697 211.899 149C211.899 151.303 213.772 153.17 216.082 153.17Z" fill="#C9CEC7"/>
</g>
<mask id="mask40" mask-type="alpha" maskUnits="userSpaceOnUse" x="115" y="165" width="9" height="10">
<path d="M119.183 174.107C121.493 174.107 123.365 172.24 123.365 169.937C123.365 167.634 121.493 165.767 119.183 165.767C116.873 165.767 115 167.634 115 169.937C115 172.24 116.873 174.107 119.183 174.107Z" fill="#C9CEC7"/>
</mask>
<g mask="url(#mask40)">
<path d="M119.183 174.107C121.493 174.107 123.365 172.24 123.365 169.937C123.365 167.634 121.493 165.767 119.183 165.767C116.873 165.767 115 167.634 115 169.937C115 172.24 116.873 174.107 119.183 174.107Z" fill="#C9CEC7"/>
</g>
<mask id="mask41" mask-type="alpha" maskUnits="userSpaceOnUse" x="139" y="165" width="9" height="10">
<path d="M143.408 174.107C145.718 174.107 147.59 172.24 147.59 169.937C147.59 167.634 145.718 165.767 143.408 165.767C141.098 165.767 139.225 167.634 139.225 169.937C139.225 172.24 141.098 174.107 143.408 174.107Z" fill="#C9CEC7"/>
</mask>
<g mask="url(#mask41)">
<path d="M143.408 174.107C145.718 174.107 147.59 172.24 147.59 169.937C147.59 167.634 145.718 165.767 143.408 165.767C141.098 165.767 139.225 167.634 139.225 169.937C139.225 172.24 141.098 174.107 143.408 174.107Z" fill="#C9CEC7"/>
</g>
<mask id="mask42" mask-type="alpha" maskUnits="userSpaceOnUse" x="163" y="165" width="9" height="10">
<path d="M167.632 174.107C169.942 174.107 171.815 172.24 171.815 169.937C171.815 167.634 169.942 165.767 167.632 165.767C165.322 165.767 163.45 167.634 163.45 169.937C163.45 172.24 165.322 174.107 167.632 174.107Z" fill="#C9CEC7"/>
</mask>
<g mask="url(#mask42)">
<path d="M167.632 174.107C169.942 174.107 171.815 172.24 171.815 169.937C171.815 167.634 169.942 165.767 167.632 165.767C165.322 165.767 163.45 167.634 163.45 169.937C163.45 172.24 165.322 174.107 167.632 174.107Z" fill="#C9CEC7"/>
</g>
<mask id="mask43" mask-type="alpha" maskUnits="userSpaceOnUse" x="187" y="165" width="10" height="10">
<path d="M191.857 174.107C194.167 174.107 196.04 172.24 196.04 169.937C196.04 167.634 194.167 165.767 191.857 165.767C189.547 165.767 187.675 167.634 187.675 169.937C187.675 172.24 189.547 174.107 191.857 174.107Z" fill="#C9CEC7"/>
</mask>
<g mask="url(#mask43)">
<path d="M191.857 174.107C194.167 174.107 196.04 172.24 196.04 169.937C196.04 167.634 194.167 165.767 191.857 165.767C189.547 165.767 187.675 167.634 187.675 169.937C187.675 172.24 189.547 174.107 191.857 174.107Z" fill="#C9CEC7"/>
</g>
<mask id="mask44" mask-type="alpha" maskUnits="userSpaceOnUse" x="211" y="165" width="10" height="10">
<path d="M216.082 174.107C218.392 174.107 220.265 172.24 220.265 169.937C220.265 167.634 218.392 165.767 216.082 165.767C213.772 165.767 211.899 167.634 211.899 169.937C211.899 172.24 213.772 174.107 216.082 174.107Z" fill="#C9CEC7"/>
</mask>
<g mask="url(#mask44)">
<path d="M216.082 174.107C218.392 174.107 220.265 172.24 220.265 169.937C220.265 167.634 218.392 165.767 216.082 165.767C213.772 165.767 211.899 167.634 211.899 169.937C211.899 172.24 213.772 174.107 216.082 174.107Z" fill="#C9CEC7"/>
</g>
<mask id="mask45" mask-type="alpha" maskUnits="userSpaceOnUse" x="115" y="186" width="9" height="10">
<path d="M119.183 195C121.493 195 123.365 193.133 123.365 190.83C123.365 188.527 121.493 186.66 119.183 186.66C116.873 186.66 115 188.527 115 190.83C115 193.133 116.873 195 119.183 195Z" fill="#C9CEC7"/>
</mask>
<g mask="url(#mask45)">
<path d="M119.183 195C121.493 195 123.365 193.133 123.365 190.83C123.365 188.527 121.493 186.66 119.183 186.66C116.873 186.66 115 188.527 115 190.83C115 193.133 116.873 195 119.183 195Z" fill="#C9CEC7"/>
</g>
<mask id="mask46" mask-type="alpha" maskUnits="userSpaceOnUse" x="139" y="186" width="9" height="10">
<path d="M143.408 195C145.718 195 147.59 193.133 147.59 190.83C147.59 188.527 145.718 186.66 143.408 186.66C141.098 186.66 139.225 188.527 139.225 190.83C139.225 193.133 141.098 195 143.408 195Z" fill="#C9CEC7"/>
</mask>
<g mask="url(#mask46)">
<path d="M143.408 195C145.718 195 147.59 193.133 147.59 190.83C147.59 188.527 145.718 186.66 143.408 186.66C141.098 186.66 139.225 188.527 139.225 190.83C139.225 193.133 141.098 195 143.408 195Z" fill="#C9CEC7"/>
</g>
<mask id="mask47" mask-type="alpha" maskUnits="userSpaceOnUse" x="163" y="186" width="9" height="10">
<path d="M167.632 195C169.942 195 171.815 193.133 171.815 190.83C171.815 188.527 169.942 186.66 167.632 186.66C165.322 186.66 163.45 188.527 163.45 190.83C163.45 193.133 165.322 195 167.632 195Z" fill="#C9CEC7"/>
</mask>
<g mask="url(#mask47)">
<path d="M167.632 195C169.942 195 171.815 193.133 171.815 190.83C171.815 188.527 169.942 186.66 167.632 186.66C165.322 186.66 163.45 188.527 163.45 190.83C163.45 193.133 165.322 195 167.632 195Z" fill="#C9CEC7"/>
</g>
<mask id="mask48" mask-type="alpha" maskUnits="userSpaceOnUse" x="187" y="186" width="10" height="10">
<path d="M191.857 195C194.167 195 196.04 193.133 196.04 190.83C196.04 188.527 194.167 186.66 191.857 186.66C189.547 186.66 187.675 188.527 187.675 190.83C187.675 193.133 189.547 195 191.857 195Z" fill="#C9CEC7"/>
</mask>
<g mask="url(#mask48)">
<path d="M191.857 195C194.167 195 196.04 193.133 196.04 190.83C196.04 188.527 194.167 186.66 191.857 186.66C189.547 186.66 187.675 188.527 187.675 190.83C187.675 193.133 189.547 195 191.857 195Z" fill="#C9CEC7"/>
</g>
<mask id="mask49" mask-type="alpha" maskUnits="userSpaceOnUse" x="211" y="186" width="10" height="10">
<path d="M216.082 195C218.392 195 220.265 193.133 220.265 190.83C220.265 188.527 218.392 186.66 216.082 186.66C213.772 186.66 211.899 188.527 211.899 190.83C211.899 193.133 213.772 195 216.082 195Z" fill="#C9CEC7"/>
</mask>
<g mask="url(#mask49)">
<path d="M216.082 195C218.392 195 220.265 193.133 220.265 190.83C220.265 188.527 218.392 186.66 216.082 186.66C213.772 186.66 211.899 188.527 211.899 190.83C211.899 193.133 213.772 195 216.082 195Z" fill="#C9CEC7"/>
</g>
</g>
<g opacity="0.3">
<mask id="mask50" mask-type="alpha" maskUnits="userSpaceOnUse" x="0" y="0" width="9" height="9">
<path d="M4.1827 8.33997C6.49275 8.33997 8.36541 6.47297 8.36541 4.16996C8.36541 1.86695 6.49275 0 4.1827 0C1.87266 0 0 1.86695 0 4.16996C0 6.47297 1.87266 8.33997 4.1827 8.33997Z" fill="#C9CEC7"/>
</mask>
<g mask="url(#mask50)">
<path d="M4.1827 8.33997C6.49275 8.33997 8.36541 6.47297 8.36541 4.16996C8.36541 1.86695 6.49275 0 4.1827 0C1.87266 0 0 1.86695 0 4.16996C0 6.47297 1.87266 8.33997 4.1827 8.33997Z" fill="#C9CEC7"/>
</g>
<mask id="mask51" mask-type="alpha" maskUnits="userSpaceOnUse" x="24" y="0" width="9" height="9">
<path d="M28.4077 8.33997C30.7178 8.33997 32.5904 6.47297 32.5904 4.16996C32.5904 1.86695 30.7178 0 28.4077 0C26.0977 0 24.225 1.86695 24.225 4.16996C24.225 6.47297 26.0977 8.33997 28.4077 8.33997Z" fill="#C9CEC7"/>
</mask>
<g mask="url(#mask51)">
<path d="M28.4077 8.33997C30.7178 8.33997 32.5904 6.47297 32.5904 4.16996C32.5904 1.86695 30.7178 0 28.4077 0C26.0977 0 24.225 1.86695 24.225 4.16996C24.225 6.47297 26.0977 8.33997 28.4077 8.33997Z" fill="#C9CEC7"/>
</g>
<mask id="mask52" mask-type="alpha" maskUnits="userSpaceOnUse" x="48" y="0" width="9" height="9">
<path d="M52.6323 8.33997C54.9424 8.33997 56.815 6.47297 56.815 4.16996C56.815 1.86695 54.9424 0 52.6323 0C50.3223 0 48.4496 1.86695 48.4496 4.16996C48.4496 6.47297 50.3223 8.33997 52.6323 8.33997Z" fill="#C9CEC7"/>
</mask>
<g mask="url(#mask52)">
<path d="M52.6323 8.33997C54.9424 8.33997 56.815 6.47297 56.815 4.16996C56.815 1.86695 54.9424 0 52.6323 0C50.3223 0 48.4496 1.86695 48.4496 4.16996C48.4496 6.47297 50.3223 8.33997 52.6323 8.33997Z" fill="#C9CEC7"/>
</g>
<mask id="mask53" mask-type="alpha" maskUnits="userSpaceOnUse" x="72" y="0" width="10" height="9">
<path d="M76.8573 8.33997C79.1674 8.33997 81.04 6.47297 81.04 4.16996C81.04 1.86695 79.1674 0 76.8573 0C74.5473 0 72.6746 1.86695 72.6746 4.16996C72.6746 6.47297 74.5473 8.33997 76.8573 8.33997Z" fill="#C9CEC7"/>
</mask>
<g mask="url(#mask53)">
<path d="M76.8573 8.33997C79.1674 8.33997 81.04 6.47297 81.04 4.16996C81.04 1.86695 79.1674 0 76.8573 0C74.5473 0 72.6746 1.86695 72.6746 4.16996C72.6746 6.47297 74.5473 8.33997 76.8573 8.33997Z" fill="#C9CEC7"/>
</g>
<mask id="mask54" mask-type="alpha" maskUnits="userSpaceOnUse" x="96" y="0" width="10" height="9">
<path d="M101.082 8.33997C103.392 8.33997 105.265 6.47297 105.265 4.16996C105.265 1.86695 103.392 0 101.082 0C98.7719 0 96.8992 1.86695 96.8992 4.16996C96.8992 6.47297 98.7719 8.33997 101.082 8.33997Z" fill="#C9CEC7"/>
</mask>
<g mask="url(#mask54)">
<path d="M101.082 8.33997C103.392 8.33997 105.265 6.47297 105.265 4.16996C105.265 1.86695 103.392 0 101.082 0C98.7719 0 96.8992 1.86695 96.8992 4.16996C96.8992 6.47297 98.7719 8.33997 101.082 8.33997Z" fill="#C9CEC7"/>
</g>
<mask id="mask55" mask-type="alpha" maskUnits="userSpaceOnUse" x="0" y="20" width="9" height="10">
<path d="M4.1827 29.2767C6.49275 29.2767 8.36541 27.4097 8.36541 25.1067C8.36541 22.8037 6.49275 20.9368 4.1827 20.9368C1.87266 20.9368 0 22.8037 0 25.1067C0 27.4097 1.87266 29.2767 4.1827 29.2767Z" fill="#C9CEC7"/>
</mask>
<g mask="url(#mask55)">
<path d="M4.1827 29.2767C6.49275 29.2767 8.36541 27.4097 8.36541 25.1067C8.36541 22.8037 6.49275 20.9368 4.1827 20.9368C1.87266 20.9368 0 22.8037 0 25.1067C0 27.4097 1.87266 29.2767 4.1827 29.2767Z" fill="#C9CEC7"/>
</g>
<mask id="mask56" mask-type="alpha" maskUnits="userSpaceOnUse" x="24" y="20" width="9" height="10">
<path d="M28.4077 29.2767C30.7178 29.2767 32.5904 27.4097 32.5904 25.1067C32.5904 22.8037 30.7178 20.9368 28.4077 20.9368C26.0977 20.9368 24.225 22.8037 24.225 25.1067C24.225 27.4097 26.0977 29.2767 28.4077 29.2767Z" fill="#C9CEC7"/>
</mask>
<g mask="url(#mask56)">
<path d="M28.4077 29.2767C30.7178 29.2767 32.5904 27.4097 32.5904 25.1067C32.5904 22.8037 30.7178 20.9368 28.4077 20.9368C26.0977 20.9368 24.225 22.8037 24.225 25.1067C24.225 27.4097 26.0977 29.2767 28.4077 29.2767Z" fill="#C9CEC7"/>
</g>
<mask id="mask57" mask-type="alpha" maskUnits="userSpaceOnUse" x="48" y="20" width="9" height="10">
<path d="M52.6323 29.2767C54.9424 29.2767 56.815 27.4097 56.815 25.1067C56.815 22.8037 54.9424 20.9368 52.6323 20.9368C50.3223 20.9368 48.4496 22.8037 48.4496 25.1067C48.4496 27.4097 50.3223 29.2767 52.6323 29.2767Z" fill="#C9CEC7"/>
</mask>
<g mask="url(#mask57)">
<path d="M52.6323 29.2767C54.9424 29.2767 56.815 27.4097 56.815 25.1067C56.815 22.8037 54.9424 20.9368 52.6323 20.9368C50.3223 20.9368 48.4496 22.8037 48.4496 25.1067C48.4496 27.4097 50.3223 29.2767 52.6323 29.2767Z" fill="#C9CEC7"/>
</g>
<mask id="mask58" mask-type="alpha" maskUnits="userSpaceOnUse" x="72" y="20" width="10" height="10">
<path d="M76.8573 29.2767C79.1674 29.2767 81.04 27.4097 81.04 25.1067C81.04 22.8037 79.1674 20.9368 76.8573 20.9368C74.5473 20.9368 72.6746 22.8037 72.6746 25.1067C72.6746 27.4097 74.5473 29.2767 76.8573 29.2767Z" fill="#C9CEC7"/>
</mask>
<g mask="url(#mask58)">
<path d="M76.8573 29.2767C79.1674 29.2767 81.04 27.4097 81.04 25.1067C81.04 22.8037 79.1674 20.9368 76.8573 20.9368C74.5473 20.9368 72.6746 22.8037 72.6746 25.1067C72.6746 27.4097 74.5473 29.2767 76.8573 29.2767Z" fill="#C9CEC7"/>
</g>
<mask id="mask59" mask-type="alpha" maskUnits="userSpaceOnUse" x="96" y="20" width="10" height="10">
<path d="M101.082 29.2767C103.392 29.2767 105.265 27.4097 105.265 25.1067C105.265 22.8037 103.392 20.9368 101.082 20.9368C98.7719 20.9368 96.8992 22.8037 96.8992 25.1067C96.8992 27.4097 98.7719 29.2767 101.082 29.2767Z" fill="#C9CEC7"/>
</mask>
<g mask="url(#mask59)">
<path d="M101.082 29.2767C103.392 29.2767 105.265 27.4097 105.265 25.1067C105.265 22.8037 103.392 20.9368 101.082 20.9368C98.7719 20.9368 96.8992 22.8037 96.8992 25.1067C96.8992 27.4097 98.7719 29.2767 101.082 29.2767Z" fill="#C9CEC7"/>
</g>
<mask id="mask60" mask-type="alpha" maskUnits="userSpaceOnUse" x="0" y="41" width="9" height="10">
<path d="M4.1827 50.17C6.49275 50.17 8.36541 48.3031 8.36541 46.0001C8.36541 43.697 6.49275 41.8301 4.1827 41.8301C1.87266 41.8301 0 43.697 0 46.0001C0 48.3031 1.87266 50.17 4.1827 50.17Z" fill="#C9CEC7"/>
</mask>
<g mask="url(#mask60)">
<path d="M4.1827 50.17C6.49275 50.17 8.36541 48.3031 8.36541 46.0001C8.36541 43.697 6.49275 41.8301 4.1827 41.8301C1.87266 41.8301 0 43.697 0 46.0001C0 48.3031 1.87266 50.17 4.1827 50.17Z" fill="#C9CEC7"/>
</g>
<mask id="mask61" mask-type="alpha" maskUnits="userSpaceOnUse" x="24" y="41" width="9" height="10">
<path d="M28.4077 50.17C30.7178 50.17 32.5904 48.3031 32.5904 46.0001C32.5904 43.697 30.7178 41.8301 28.4077 41.8301C26.0977 41.8301 24.225 43.697 24.225 46.0001C24.225 48.3031 26.0977 50.17 28.4077 50.17Z" fill="#C9CEC7"/>
</mask>
<g mask="url(#mask61)">
<path d="M28.4077 50.17C30.7178 50.17 32.5904 48.3031 32.5904 46.0001C32.5904 43.697 30.7178 41.8301 28.4077 41.8301C26.0977 41.8301 24.225 43.697 24.225 46.0001C24.225 48.3031 26.0977 50.17 28.4077 50.17Z" fill="#C9CEC7"/>
</g>
<mask id="mask62" mask-type="alpha" maskUnits="userSpaceOnUse" x="48" y="41" width="9" height="10">
<path d="M52.6323 50.17C54.9424 50.17 56.815 48.3031 56.815 46.0001C56.815 43.697 54.9424 41.8301 52.6323 41.8301C50.3223 41.8301 48.4496 43.697 48.4496 46.0001C48.4496 48.3031 50.3223 50.17 52.6323 50.17Z" fill="#C9CEC7"/>
</mask>
<g mask="url(#mask62)">
<path d="M52.6323 50.17C54.9424 50.17 56.815 48.3031 56.815 46.0001C56.815 43.697 54.9424 41.8301 52.6323 41.8301C50.3223 41.8301 48.4496 43.697 48.4496 46.0001C48.4496 48.3031 50.3223 50.17 52.6323 50.17Z" fill="#C9CEC7"/>
</g>
<mask id="mask63" mask-type="alpha" maskUnits="userSpaceOnUse" x="72" y="41" width="10" height="10">
<path d="M76.8573 50.17C79.1674 50.17 81.04 48.3031 81.04 46.0001C81.04 43.697 79.1674 41.8301 76.8573 41.8301C74.5473 41.8301 72.6746 43.697 72.6746 46.0001C72.6746 48.3031 74.5473 50.17 76.8573 50.17Z" fill="#C9CEC7"/>
</mask>
<g mask="url(#mask63)">
<path d="M76.8573 50.17C79.1674 50.17 81.04 48.3031 81.04 46.0001C81.04 43.697 79.1674 41.8301 76.8573 41.8301C74.5473 41.8301 72.6746 43.697 72.6746 46.0001C72.6746 48.3031 74.5473 50.17 76.8573 50.17Z" fill="#C9CEC7"/>
</g>
<mask id="mask64" mask-type="alpha" maskUnits="userSpaceOnUse" x="96" y="41" width="10" height="10">
<path d="M101.082 50.17C103.392 50.17 105.265 48.3031 105.265 46.0001C105.265 43.697 103.392 41.8301 101.082 41.8301C98.7719 41.8301 96.8992 43.697 96.8992 46.0001C96.8992 48.3031 98.7719 50.17 101.082 50.17Z" fill="#C9CEC7"/>
</mask>
<g mask="url(#mask64)">
<path d="M101.082 50.17C103.392 50.17 105.265 48.3031 105.265 46.0001C105.265 43.697 103.392 41.8301 101.082 41.8301C98.7719 41.8301 96.8992 43.697 96.8992 46.0001C96.8992 48.3031 98.7719 50.17 101.082 50.17Z" fill="#C9CEC7"/>
</g>
<mask id="mask65" mask-type="alpha" maskUnits="userSpaceOnUse" x="0" y="62" width="9" height="10">
<path d="M4.1827 71.1066C6.49275 71.1066 8.36541 69.2396 8.36541 66.9366C8.36541 64.6335 6.49275 62.7666 4.1827 62.7666C1.87266 62.7666 0 64.6335 0 66.9366C0 69.2396 1.87266 71.1066 4.1827 71.1066Z" fill="#C9CEC7"/>
</mask>
<g mask="url(#mask65)">
<path d="M4.1827 71.1066C6.49275 71.1066 8.36541 69.2396 8.36541 66.9366C8.36541 64.6335 6.49275 62.7666 4.1827 62.7666C1.87266 62.7666 0 64.6335 0 66.9366C0 69.2396 1.87266 71.1066 4.1827 71.1066Z" fill="#C9CEC7"/>
</g>
<mask id="mask66" mask-type="alpha" maskUnits="userSpaceOnUse" x="24" y="62" width="9" height="10">
<path d="M28.4077 71.1066C30.7178 71.1066 32.5904 69.2396 32.5904 66.9366C32.5904 64.6335 30.7178 62.7666 28.4077 62.7666C26.0977 62.7666 24.225 64.6335 24.225 66.9366C24.225 69.2396 26.0977 71.1066 28.4077 71.1066Z" fill="#C9CEC7"/>
</mask>
<g mask="url(#mask66)">
<path d="M28.4077 71.1066C30.7178 71.1066 32.5904 69.2396 32.5904 66.9366C32.5904 64.6335 30.7178 62.7666 28.4077 62.7666C26.0977 62.7666 24.225 64.6335 24.225 66.9366C24.225 69.2396 26.0977 71.1066 28.4077 71.1066Z" fill="#C9CEC7"/>
</g>
<mask id="mask67" mask-type="alpha" maskUnits="userSpaceOnUse" x="48" y="62" width="9" height="10">
<path d="M52.6323 71.1066C54.9424 71.1066 56.815 69.2396 56.815 66.9366C56.815 64.6335 54.9424 62.7666 52.6323 62.7666C50.3223 62.7666 48.4496 64.6335 48.4496 66.9366C48.4496 69.2396 50.3223 71.1066 52.6323 71.1066Z" fill="#C9CEC7"/>
</mask>
<g mask="url(#mask67)">
<path d="M52.6323 71.1066C54.9424 71.1066 56.815 69.2396 56.815 66.9366C56.815 64.6335 54.9424 62.7666 52.6323 62.7666C50.3223 62.7666 48.4496 64.6335 48.4496 66.9366C48.4496 69.2396 50.3223 71.1066 52.6323 71.1066Z" fill="#C9CEC7"/>
</g>
<mask id="mask68" mask-type="alpha" maskUnits="userSpaceOnUse" x="72" y="62" width="10" height="10">
<path d="M76.8573 71.1066C79.1674 71.1066 81.04 69.2396 81.04 66.9366C81.04 64.6335 79.1674 62.7666 76.8573 62.7666C74.5473 62.7666 72.6746 64.6335 72.6746 66.9366C72.6746 69.2396 74.5473 71.1066 76.8573 71.1066Z" fill="#C9CEC7"/>
</mask>
<g mask="url(#mask68)">
<path d="M76.8573 71.1066C79.1674 71.1066 81.04 69.2396 81.04 66.9366C81.04 64.6335 79.1674 62.7666 76.8573 62.7666C74.5473 62.7666 72.6746 64.6335 72.6746 66.9366C72.6746 69.2396 74.5473 71.1066 76.8573 71.1066Z" fill="#C9CEC7"/>
</g>
<mask id="mask69" mask-type="alpha" maskUnits="userSpaceOnUse" x="96" y="62" width="10" height="10">
<path d="M101.082 71.1066C103.392 71.1066 105.265 69.2396 105.265 66.9366C105.265 64.6335 103.392 62.7666 101.082 62.7666C98.7719 62.7666 96.8992 64.6335 96.8992 66.9366C96.8992 69.2396 98.7719 71.1066 101.082 71.1066Z" fill="#C9CEC7"/>
</mask>
<g mask="url(#mask69)">
<path d="M101.082 71.1066C103.392 71.1066 105.265 69.2396 105.265 66.9366C105.265 64.6335 103.392 62.7666 101.082 62.7666C98.7719 62.7666 96.8992 64.6335 96.8992 66.9366C96.8992 69.2396 98.7719 71.1066 101.082 71.1066Z" fill="#C9CEC7"/>
</g>
<mask id="mask70" mask-type="alpha" maskUnits="userSpaceOnUse" x="0" y="83" width="9" height="10">
<path d="M4.1827 92.0001C6.49275 92.0001 8.36541 90.1332 8.36541 87.8302C8.36541 85.5272 6.49275 83.6602 4.1827 83.6602C1.87266 83.6602 0 85.5272 0 87.8302C0 90.1332 1.87266 92.0001 4.1827 92.0001Z" fill="#C9CEC7"/>
</mask>
<g mask="url(#mask70)">
<path d="M4.1827 92.0001C6.49275 92.0001 8.36541 90.1332 8.36541 87.8302C8.36541 85.5272 6.49275 83.6602 4.1827 83.6602C1.87266 83.6602 0 85.5272 0 87.8302C0 90.1332 1.87266 92.0001 4.1827 92.0001Z" fill="#C9CEC7"/>
</g>
<mask id="mask71" mask-type="alpha" maskUnits="userSpaceOnUse" x="24" y="83" width="9" height="10">
<path d="M28.4077 92.0001C30.7178 92.0001 32.5904 90.1332 32.5904 87.8302C32.5904 85.5272 30.7178 83.6602 28.4077 83.6602C26.0977 83.6602 24.225 85.5272 24.225 87.8302C24.225 90.1332 26.0977 92.0001 28.4077 92.0001Z" fill="#C9CEC7"/>
</mask>
<g mask="url(#mask71)">
<path d="M28.4077 92.0001C30.7178 92.0001 32.5904 90.1332 32.5904 87.8302C32.5904 85.5272 30.7178 83.6602 28.4077 83.6602C26.0977 83.6602 24.225 85.5272 24.225 87.8302C24.225 90.1332 26.0977 92.0001 28.4077 92.0001Z" fill="#C9CEC7"/>
</g>
<mask id="mask72" mask-type="alpha" maskUnits="userSpaceOnUse" x="48" y="83" width="9" height="10">
<path d="M52.6323 92.0001C54.9424 92.0001 56.815 90.1332 56.815 87.8302C56.815 85.5272 54.9424 83.6602 52.6323 83.6602C50.3223 83.6602 48.4496 85.5272 48.4496 87.8302C48.4496 90.1332 50.3223 92.0001 52.6323 92.0001Z" fill="#C9CEC7"/>
</mask>
<g mask="url(#mask72)">
<path d="M52.6323 92.0001C54.9424 92.0001 56.815 90.1332 56.815 87.8302C56.815 85.5272 54.9424 83.6602 52.6323 83.6602C50.3223 83.6602 48.4496 85.5272 48.4496 87.8302C48.4496 90.1332 50.3223 92.0001 52.6323 92.0001Z" fill="#C9CEC7"/>
</g>
<mask id="mask73" mask-type="alpha" maskUnits="userSpaceOnUse" x="72" y="83" width="10" height="10">
<path d="M76.8573 92.0001C79.1674 92.0001 81.04 90.1332 81.04 87.8302C81.04 85.5272 79.1674 83.6602 76.8573 83.6602C74.5473 83.6602 72.6746 85.5272 72.6746 87.8302C72.6746 90.1332 74.5473 92.0001 76.8573 92.0001Z" fill="#C9CEC7"/>
</mask>
<g mask="url(#mask73)">
<path d="M76.8573 92.0001C79.1674 92.0001 81.04 90.1332 81.04 87.8302C81.04 85.5272 79.1674 83.6602 76.8573 83.6602C74.5473 83.6602 72.6746 85.5272 72.6746 87.8302C72.6746 90.1332 74.5473 92.0001 76.8573 92.0001Z" fill="#C9CEC7"/>
</g>
<mask id="mask74" mask-type="alpha" maskUnits="userSpaceOnUse" x="96" y="83" width="10" height="10">
<path d="M101.082 92.0001C103.392 92.0001 105.265 90.1332 105.265 87.8302C105.265 85.5272 103.392 83.6602 101.082 83.6602C98.7719 83.6602 96.8992 85.5272 96.8992 87.8302C96.8992 90.1332 98.7719 92.0001 101.082 92.0001Z" fill="#C9CEC7"/>
</mask>
<g mask="url(#mask74)">
<path d="M101.082 92.0001C103.392 92.0001 105.265 90.1332 105.265 87.8302C105.265 85.5272 103.392 83.6602 101.082 83.6602C98.7719 83.6602 96.8992 85.5272 96.8992 87.8302C96.8992 90.1332 98.7719 92.0001 101.082 92.0001Z" fill="#C9CEC7"/>
</g>
</g>
<g opacity="0.3">
<mask id="mask75" mask-type="alpha" maskUnits="userSpaceOnUse" x="0" y="103" width="9" height="9">
<path d="M4.1827 111.34C6.49275 111.34 8.36541 109.473 8.36541 107.17C8.36541 104.867 6.49275 103 4.1827 103C1.87266 103 0 104.867 0 107.17C0 109.473 1.87266 111.34 4.1827 111.34Z" fill="#C9CEC7"/>
</mask>
<g mask="url(#mask75)">
<path d="M4.1827 111.34C6.49275 111.34 8.36541 109.473 8.36541 107.17C8.36541 104.867 6.49275 103 4.1827 103C1.87266 103 0 104.867 0 107.17C0 109.473 1.87266 111.34 4.1827 111.34Z" fill="#C9CEC7"/>
</g>
<mask id="mask76" mask-type="alpha" maskUnits="userSpaceOnUse" x="24" y="103" width="9" height="9">
<path d="M28.4077 111.34C30.7178 111.34 32.5904 109.473 32.5904 107.17C32.5904 104.867 30.7178 103 28.4077 103C26.0977 103 24.225 104.867 24.225 107.17C24.225 109.473 26.0977 111.34 28.4077 111.34Z" fill="#C9CEC7"/>
</mask>
<g mask="url(#mask76)">
<path d="M28.4077 111.34C30.7178 111.34 32.5904 109.473 32.5904 107.17C32.5904 104.867 30.7178 103 28.4077 103C26.0977 103 24.225 104.867 24.225 107.17C24.225 109.473 26.0977 111.34 28.4077 111.34Z" fill="#C9CEC7"/>
</g>
<mask id="mask77" mask-type="alpha" maskUnits="userSpaceOnUse" x="48" y="103" width="9" height="9">
<path d="M52.6323 111.34C54.9424 111.34 56.815 109.473 56.815 107.17C56.815 104.867 54.9424 103 52.6323 103C50.3223 103 48.4496 104.867 48.4496 107.17C48.4496 109.473 50.3223 111.34 52.6323 111.34Z" fill="#C9CEC7"/>
</mask>
<g mask="url(#mask77)">
<path d="M52.6323 111.34C54.9424 111.34 56.815 109.473 56.815 107.17C56.815 104.867 54.9424 103 52.6323 103C50.3223 103 48.4496 104.867 48.4496 107.17C48.4496 109.473 50.3223 111.34 52.6323 111.34Z" fill="#C9CEC7"/>
</g>
<mask id="mask78" mask-type="alpha" maskUnits="userSpaceOnUse" x="72" y="103" width="10" height="9">
<path d="M76.8573 111.34C79.1674 111.34 81.04 109.473 81.04 107.17C81.04 104.867 79.1674 103 76.8573 103C74.5473 103 72.6746 104.867 72.6746 107.17C72.6746 109.473 74.5473 111.34 76.8573 111.34Z" fill="#C9CEC7"/>
</mask>
<g mask="url(#mask78)">
<path d="M76.8573 111.34C79.1674 111.34 81.04 109.473 81.04 107.17C81.04 104.867 79.1674 103 76.8573 103C74.5473 103 72.6746 104.867 72.6746 107.17C72.6746 109.473 74.5473 111.34 76.8573 111.34Z" fill="#C9CEC7"/>
</g>
<mask id="mask79" mask-type="alpha" maskUnits="userSpaceOnUse" x="96" y="103" width="10" height="9">
<path d="M101.082 111.34C103.392 111.34 105.265 109.473 105.265 107.17C105.265 104.867 103.392 103 101.082 103C98.7719 103 96.8992 104.867 96.8992 107.17C96.8992 109.473 98.7719 111.34 101.082 111.34Z" fill="#C9CEC7"/>
</mask>
<g mask="url(#mask79)">
<path d="M101.082 111.34C103.392 111.34 105.265 109.473 105.265 107.17C105.265 104.867 103.392 103 101.082 103C98.7719 103 96.8992 104.867 96.8992 107.17C96.8992 109.473 98.7719 111.34 101.082 111.34Z" fill="#C9CEC7"/>
</g>
<mask id="mask80" mask-type="alpha" maskUnits="userSpaceOnUse" x="0" y="123" width="9" height="10">
<path d="M4.1827 132.277C6.49275 132.277 8.36541 130.41 8.36541 128.107C8.36541 125.804 6.49275 123.937 4.1827 123.937C1.87266 123.937 0 125.804 0 128.107C0 130.41 1.87266 132.277 4.1827 132.277Z" fill="#C9CEC7"/>
</mask>
<g mask="url(#mask80)">
<path d="M4.1827 132.277C6.49275 132.277 8.36541 130.41 8.36541 128.107C8.36541 125.804 6.49275 123.937 4.1827 123.937C1.87266 123.937 0 125.804 0 128.107C0 130.41 1.87266 132.277 4.1827 132.277Z" fill="#C9CEC7"/>
</g>
<mask id="mask81" mask-type="alpha" maskUnits="userSpaceOnUse" x="24" y="123" width="9" height="10">
<path d="M28.4077 132.277C30.7178 132.277 32.5904 130.41 32.5904 128.107C32.5904 125.804 30.7178 123.937 28.4077 123.937C26.0977 123.937 24.225 125.804 24.225 128.107C24.225 130.41 26.0977 132.277 28.4077 132.277Z" fill="#C9CEC7"/>
</mask>
<g mask="url(#mask81)">
<path d="M28.4077 132.277C30.7178 132.277 32.5904 130.41 32.5904 128.107C32.5904 125.804 30.7178 123.937 28.4077 123.937C26.0977 123.937 24.225 125.804 24.225 128.107C24.225 130.41 26.0977 132.277 28.4077 132.277Z" fill="#C9CEC7"/>
</g>
<mask id="mask82" mask-type="alpha" maskUnits="userSpaceOnUse" x="48" y="123" width="9" height="10">
<path d="M52.6323 132.277C54.9424 132.277 56.815 130.41 56.815 128.107C56.815 125.804 54.9424 123.937 52.6323 123.937C50.3223 123.937 48.4496 125.804 48.4496 128.107C48.4496 130.41 50.3223 132.277 52.6323 132.277Z" fill="#C9CEC7"/>
</mask>
<g mask="url(#mask82)">
<path d="M52.6323 132.277C54.9424 132.277 56.815 130.41 56.815 128.107C56.815 125.804 54.9424 123.937 52.6323 123.937C50.3223 123.937 48.4496 125.804 48.4496 128.107C48.4496 130.41 50.3223 132.277 52.6323 132.277Z" fill="#C9CEC7"/>
</g>
<mask id="mask83" mask-type="alpha" maskUnits="userSpaceOnUse" x="72" y="123" width="10" height="10">
<path d="M76.8573 132.277C79.1674 132.277 81.04 130.41 81.04 128.107C81.04 125.804 79.1674 123.937 76.8573 123.937C74.5473 123.937 72.6746 125.804 72.6746 128.107C72.6746 130.41 74.5473 132.277 76.8573 132.277Z" fill="#C9CEC7"/>
</mask>
<g mask="url(#mask83)">
<path d="M76.8573 132.277C79.1674 132.277 81.04 130.41 81.04 128.107C81.04 125.804 79.1674 123.937 76.8573 123.937C74.5473 123.937 72.6746 125.804 72.6746 128.107C72.6746 130.41 74.5473 132.277 76.8573 132.277Z" fill="#C9CEC7"/>
</g>
<mask id="mask84" mask-type="alpha" maskUnits="userSpaceOnUse" x="96" y="123" width="10" height="10">
<path d="M101.082 132.277C103.392 132.277 105.265 130.41 105.265 128.107C105.265 125.804 103.392 123.937 101.082 123.937C98.7719 123.937 96.8992 125.804 96.8992 128.107C96.8992 130.41 98.7719 132.277 101.082 132.277Z" fill="#C9CEC7"/>
</mask>
<g mask="url(#mask84)">
<path d="M101.082 132.277C103.392 132.277 105.265 130.41 105.265 128.107C105.265 125.804 103.392 123.937 101.082 123.937C98.7719 123.937 96.8992 125.804 96.8992 128.107C96.8992 130.41 98.7719 132.277 101.082 132.277Z" fill="#C9CEC7"/>
</g>
<mask id="mask85" mask-type="alpha" maskUnits="userSpaceOnUse" x="0" y="144" width="9" height="10">
<path d="M4.1827 153.17C6.49275 153.17 8.36541 151.303 8.36541 149C8.36541 146.697 6.49275 144.83 4.1827 144.83C1.87266 144.83 0 146.697 0 149C0 151.303 1.87266 153.17 4.1827 153.17Z" fill="#C9CEC7"/>
</mask>
<g mask="url(#mask85)">
<path d="M4.1827 153.17C6.49275 153.17 8.36541 151.303 8.36541 149C8.36541 146.697 6.49275 144.83 4.1827 144.83C1.87266 144.83 0 146.697 0 149C0 151.303 1.87266 153.17 4.1827 153.17Z" fill="#C9CEC7"/>
</g>
<mask id="mask86" mask-type="alpha" maskUnits="userSpaceOnUse" x="24" y="144" width="9" height="10">
<path d="M28.4077 153.17C30.7178 153.17 32.5904 151.303 32.5904 149C32.5904 146.697 30.7178 144.83 28.4077 144.83C26.0977 144.83 24.225 146.697 24.225 149C24.225 151.303 26.0977 153.17 28.4077 153.17Z" fill="#C9CEC7"/>
</mask>
<g mask="url(#mask86)">
<path d="M28.4077 153.17C30.7178 153.17 32.5904 151.303 32.5904 149C32.5904 146.697 30.7178 144.83 28.4077 144.83C26.0977 144.83 24.225 146.697 24.225 149C24.225 151.303 26.0977 153.17 28.4077 153.17Z" fill="#C9CEC7"/>
</g>
<mask id="mask87" mask-type="alpha" maskUnits="userSpaceOnUse" x="48" y="144" width="9" height="10">
<path d="M52.6323 153.17C54.9424 153.17 56.815 151.303 56.815 149C56.815 146.697 54.9424 144.83 52.6323 144.83C50.3223 144.83 48.4496 146.697 48.4496 149C48.4496 151.303 50.3223 153.17 52.6323 153.17Z" fill="#C9CEC7"/>
</mask>
<g mask="url(#mask87)">
<path d="M52.6323 153.17C54.9424 153.17 56.815 151.303 56.815 149C56.815 146.697 54.9424 144.83 52.6323 144.83C50.3223 144.83 48.4496 146.697 48.4496 149C48.4496 151.303 50.3223 153.17 52.6323 153.17Z" fill="#C9CEC7"/>
</g>
<mask id="mask88" mask-type="alpha" maskUnits="userSpaceOnUse" x="72" y="144" width="10" height="10">
<path d="M76.8573 153.17C79.1674 153.17 81.04 151.303 81.04 149C81.04 146.697 79.1674 144.83 76.8573 144.83C74.5473 144.83 72.6746 146.697 72.6746 149C72.6746 151.303 74.5473 153.17 76.8573 153.17Z" fill="#C9CEC7"/>
</mask>
<g mask="url(#mask88)">
<path d="M76.8573 153.17C79.1674 153.17 81.04 151.303 81.04 149C81.04 146.697 79.1674 144.83 76.8573 144.83C74.5473 144.83 72.6746 146.697 72.6746 149C72.6746 151.303 74.5473 153.17 76.8573 153.17Z" fill="#C9CEC7"/>
</g>
<mask id="mask89" mask-type="alpha" maskUnits="userSpaceOnUse" x="96" y="144" width="10" height="10">
<path d="M101.082 153.17C103.392 153.17 105.265 151.303 105.265 149C105.265 146.697 103.392 144.83 101.082 144.83C98.7719 144.83 96.8992 146.697 96.8992 149C96.8992 151.303 98.7719 153.17 101.082 153.17Z" fill="#C9CEC7"/>
</mask>
<g mask="url(#mask89)">
<path d="M101.082 153.17C103.392 153.17 105.265 151.303 105.265 149C105.265 146.697 103.392 144.83 101.082 144.83C98.7719 144.83 96.8992 146.697 96.8992 149C96.8992 151.303 98.7719 153.17 101.082 153.17Z" fill="#C9CEC7"/>
</g>
<mask id="mask90" mask-type="alpha" maskUnits="userSpaceOnUse" x="0" y="165" width="9" height="10">
<path d="M4.1827 174.107C6.49275 174.107 8.36541 172.24 8.36541 169.937C8.36541 167.634 6.49275 165.767 4.1827 165.767C1.87266 165.767 0 167.634 0 169.937C0 172.24 1.87266 174.107 4.1827 174.107Z" fill="#C9CEC7"/>
</mask>
<g mask="url(#mask90)">
<path d="M4.1827 174.107C6.49275 174.107 8.36541 172.24 8.36541 169.937C8.36541 167.634 6.49275 165.767 4.1827 165.767C1.87266 165.767 0 167.634 0 169.937C0 172.24 1.87266 174.107 4.1827 174.107Z" fill="#C9CEC7"/>
</g>
<mask id="mask91" mask-type="alpha" maskUnits="userSpaceOnUse" x="24" y="165" width="9" height="10">
<path d="M28.4077 174.107C30.7178 174.107 32.5904 172.24 32.5904 169.937C32.5904 167.634 30.7178 165.767 28.4077 165.767C26.0977 165.767 24.225 167.634 24.225 169.937C24.225 172.24 26.0977 174.107 28.4077 174.107Z" fill="#C9CEC7"/>
</mask>
<g mask="url(#mask91)">
<path d="M28.4077 174.107C30.7178 174.107 32.5904 172.24 32.5904 169.937C32.5904 167.634 30.7178 165.767 28.4077 165.767C26.0977 165.767 24.225 167.634 24.225 169.937C24.225 172.24 26.0977 174.107 28.4077 174.107Z" fill="#C9CEC7"/>
</g>
<mask id="mask92" mask-type="alpha" maskUnits="userSpaceOnUse" x="48" y="165" width="9" height="10">
<path d="M52.6323 174.107C54.9424 174.107 56.815 172.24 56.815 169.937C56.815 167.634 54.9424 165.767 52.6323 165.767C50.3223 165.767 48.4496 167.634 48.4496 169.937C48.4496 172.24 50.3223 174.107 52.6323 174.107Z" fill="#C9CEC7"/>
</mask>
<g mask="url(#mask92)">
<path d="M52.6323 174.107C54.9424 174.107 56.815 172.24 56.815 169.937C56.815 167.634 54.9424 165.767 52.6323 165.767C50.3223 165.767 48.4496 167.634 48.4496 169.937C48.4496 172.24 50.3223 174.107 52.6323 174.107Z" fill="#C9CEC7"/>
</g>
<mask id="mask93" mask-type="alpha" maskUnits="userSpaceOnUse" x="72" y="165" width="10" height="10">
<path d="M76.8573 174.107C79.1674 174.107 81.04 172.24 81.04 169.937C81.04 167.634 79.1674 165.767 76.8573 165.767C74.5473 165.767 72.6746 167.634 72.6746 169.937C72.6746 172.24 74.5473 174.107 76.8573 174.107Z" fill="#C9CEC7"/>
</mask>
<g mask="url(#mask93)">
<path d="M76.8573 174.107C79.1674 174.107 81.04 172.24 81.04 169.937C81.04 167.634 79.1674 165.767 76.8573 165.767C74.5473 165.767 72.6746 167.634 72.6746 169.937C72.6746 172.24 74.5473 174.107 76.8573 174.107Z" fill="#C9CEC7"/>
</g>
<mask id="mask94" mask-type="alpha" maskUnits="userSpaceOnUse" x="96" y="165" width="10" height="10">
<path d="M101.082 174.107C103.392 174.107 105.265 172.24 105.265 169.937C105.265 167.634 103.392 165.767 101.082 165.767C98.7719 165.767 96.8992 167.634 96.8992 169.937C96.8992 172.24 98.7719 174.107 101.082 174.107Z" fill="#C9CEC7"/>
</mask>
<g mask="url(#mask94)">
<path d="M101.082 174.107C103.392 174.107 105.265 172.24 105.265 169.937C105.265 167.634 103.392 165.767 101.082 165.767C98.7719 165.767 96.8992 167.634 96.8992 169.937C96.8992 172.24 98.7719 174.107 101.082 174.107Z" fill="#C9CEC7"/>
</g>
<mask id="mask95" mask-type="alpha" maskUnits="userSpaceOnUse" x="0" y="186" width="9" height="10">
<path d="M4.1827 195C6.49275 195 8.36541 193.133 8.36541 190.83C8.36541 188.527 6.49275 186.66 4.1827 186.66C1.87266 186.66 0 188.527 0 190.83C0 193.133 1.87266 195 4.1827 195Z" fill="#C9CEC7"/>
</mask>
<g mask="url(#mask95)">
<path d="M4.1827 195C6.49275 195 8.36541 193.133 8.36541 190.83C8.36541 188.527 6.49275 186.66 4.1827 186.66C1.87266 186.66 0 188.527 0 190.83C0 193.133 1.87266 195 4.1827 195Z" fill="#C9CEC7"/>
</g>
<mask id="mask96" mask-type="alpha" maskUnits="userSpaceOnUse" x="24" y="186" width="9" height="10">
<path d="M28.4077 195C30.7178 195 32.5904 193.133 32.5904 190.83C32.5904 188.527 30.7178 186.66 28.4077 186.66C26.0977 186.66 24.225 188.527 24.225 190.83C24.225 193.133 26.0977 195 28.4077 195Z" fill="#C9CEC7"/>
</mask>
<g mask="url(#mask96)">
<path d="M28.4077 195C30.7178 195 32.5904 193.133 32.5904 190.83C32.5904 188.527 30.7178 186.66 28.4077 186.66C26.0977 186.66 24.225 188.527 24.225 190.83C24.225 193.133 26.0977 195 28.4077 195Z" fill="#C9CEC7"/>
</g>
<mask id="mask97" mask-type="alpha" maskUnits="userSpaceOnUse" x="48" y="186" width="9" height="10">
<path d="M52.6323 195C54.9424 195 56.815 193.133 56.815 190.83C56.815 188.527 54.9424 186.66 52.6323 186.66C50.3223 186.66 48.4496 188.527 48.4496 190.83C48.4496 193.133 50.3223 195 52.6323 195Z" fill="#C9CEC7"/>
</mask>
<g mask="url(#mask97)">
<path d="M52.6323 195C54.9424 195 56.815 193.133 56.815 190.83C56.815 188.527 54.9424 186.66 52.6323 186.66C50.3223 186.66 48.4496 188.527 48.4496 190.83C48.4496 193.133 50.3223 195 52.6323 195Z" fill="#C9CEC7"/>
</g>
<mask id="mask98" mask-type="alpha" maskUnits="userSpaceOnUse" x="72" y="186" width="10" height="10">
<path d="M76.8573 195C79.1674 195 81.04 193.133 81.04 190.83C81.04 188.527 79.1674 186.66 76.8573 186.66C74.5473 186.66 72.6746 188.527 72.6746 190.83C72.6746 193.133 74.5473 195 76.8573 195Z" fill="#C9CEC7"/>
</mask>
<g mask="url(#mask98)">
<path d="M76.8573 195C79.1674 195 81.04 193.133 81.04 190.83C81.04 188.527 79.1674 186.66 76.8573 186.66C74.5473 186.66 72.6746 188.527 72.6746 190.83C72.6746 193.133 74.5473 195 76.8573 195Z" fill="#C9CEC7"/>
</g>
<mask id="mask99" mask-type="alpha" maskUnits="userSpaceOnUse" x="96" y="186" width="10" height="10">
<path d="M101.082 195C103.392 195 105.265 193.133 105.265 190.83C105.265 188.527 103.392 186.66 101.082 186.66C98.7719 186.66 96.8992 188.527 96.8992 190.83C96.8992 193.133 98.7719 195 101.082 195Z" fill="#C9CEC7"/>
</mask>
<g mask="url(#mask99)">
<path d="M101.082 195C103.392 195 105.265 193.133 105.265 190.83C105.265 188.527 103.392 186.66 101.082 186.66C98.7719 186.66 96.8992 188.527 96.8992 190.83C96.8992 193.133 98.7719 195 101.082 195Z" fill="#C9CEC7"/>
</g>
</g>
</svg>
