<svg width="16" height="16" viewBox="0 0 16 16" fill="none" xmlns="http://www.w3.org/2000/svg">
<path d="M7.79734 11.1772C8.94583 11.1772 9.87685 10.2461 9.87685 9.09764C9.87685 7.94916 8.94583 7.01813 7.79734 7.01813C6.64886 7.01813 5.71783 7.94916 5.71783 9.09764C5.71783 10.2461 6.64886 11.1772 7.79734 11.1772Z" fill="#767676" fill-opacity="0.71"/>
<path d="M10.3981 2.1637C12.0747 2.1637 13.4329 3.52189 13.4329 5.19849H14.2972C14.2972 3.0475 12.5491 1.29941 10.3981 1.29941V2.1637ZM10.3981 3.8988C11.1195 3.8988 11.6978 4.47716 11.6978 5.19849H12.5621C12.5621 4.00277 11.5939 3.0345 10.3981 3.0345V3.8988Z" fill="#767676" fill-opacity="0.71"/>
<path d="M11.0468 5.84863C11.0468 5.1273 10.4684 4.54894 9.74709 4.54894V2.5994H5.848L4.65878 3.89909H2.59877C1.88393 3.89909 1.29907 4.48395 1.29907 5.19878V12.9969C1.29907 13.7118 1.88393 14.2966 2.59877 14.2966H12.9963C13.7112 14.2966 14.296 13.7118 14.296 12.9969V5.84863H11.0468ZM7.79754 12.3471C6.00397 12.3471 4.54831 10.8914 4.54831 9.09787C4.54831 7.30429 6.00397 5.84863 7.79754 5.84863C9.59112 5.84863 11.0468 7.30429 11.0468 9.09787C11.0468 10.8914 9.59112 12.3471 7.79754 12.3471Z" fill="#767676" fill-opacity="0.71"/>
</svg>
