<svg width="30" height="30" viewBox="0 0 30 30" fill="none" xmlns="http://www.w3.org/2000/svg">
<path d="M11.8753 3.74988C14.0302 3.74988 16.0968 4.6059 17.6206 6.12964C19.1443 7.65337 20.0003 9.72 20.0003 11.8749C20.0003 13.8874 19.2628 15.7374 18.0503 17.1624L18.3878 17.4999H19.3753L25.6253 23.7499L23.7503 25.6249L17.5003 19.3749V18.3874L17.1628 18.0499C15.7378 19.2624 13.8878 19.9999 11.8753 19.9999C9.72042 19.9999 7.6538 19.1439 6.13006 17.6201C4.60633 16.0964 3.75031 14.0298 3.75031 11.8749C3.75031 9.72 4.60633 7.65337 6.13006 6.12964C7.6538 4.6059 9.72042 3.74988 11.8753 3.74988ZM11.8753 6.24988C8.75031 6.24988 6.25031 8.74988 6.25031 11.8749C6.25031 14.9999 8.75031 17.4999 11.8753 17.4999C15.0003 17.4999 17.5003 14.9999 17.5003 11.8749C17.5003 8.74988 15.0003 6.24988 11.8753 6.24988Z" fill="white"/>
</svg>
