<svg width="17" height="17" viewBox="0 0 17 17" fill="none" xmlns="http://www.w3.org/2000/svg">
<path d="M14.8435 9.89605V10.6029C14.8435 11.953 14.0871 13.1263 12.9703 13.7201L13.4298 15.5508H12.0161L11.6626 14.1371C11.5425 14.1371 11.4294 14.1371 11.3092 14.1371H5.65446C5.5343 14.1371 5.4212 14.1371 5.30104 14.1371L4.94762 15.5508H3.53393L3.99338 13.7201C2.87656 13.1263 2.12024 11.953 2.12024 10.6029V9.89605H1.41339V8.48236H14.1366V3.53445C14.1366 3.34698 14.0621 3.16719 13.9296 3.03463C13.797 2.90207 13.6172 2.8276 13.4298 2.8276C13.0763 2.8276 12.8077 3.06793 12.7229 3.38601C13.1682 3.7677 13.4298 4.33318 13.4298 4.94814H9.18869C9.18869 4.38574 9.4121 3.84637 9.80978 3.44869C10.2075 3.05101 10.7468 2.8276 11.3092 2.8276C11.3516 2.8276 11.387 2.8276 11.4294 2.8276C11.7192 2.00766 12.5038 1.41391 13.4298 1.41391C13.9922 1.41391 14.5315 1.63732 14.9292 2.035C15.3269 2.43268 15.5503 2.97204 15.5503 3.53445V9.89605H14.8435ZM13.4298 9.89605H3.53393V10.6029C3.53393 11.1653 3.75734 11.7047 4.15502 12.1023C4.5527 12.5 5.09206 12.7234 5.65446 12.7234H11.3092C11.8716 12.7234 12.411 12.5 12.8087 12.1023C13.2063 11.7047 13.4298 11.1653 13.4298 10.6029V9.89605Z" fill="#767676"/>
</svg>
